<?xml version="1.0" encoding="utf-8"?>
<!-- Generator: Adobe Illustrator 16.0.0, SVG Export Plug-In . SVG Version: 6.00 Build 0)  -->
<!DOCTYPE svg PUBLIC "-//W3C//DTD SVG 1.1//EN" "http://www.w3.org/Graphics/SVG/1.1/DTD/svg11.dtd">
<svg version="1.1" xmlns="http://www.w3.org/2000/svg" xmlns:xlink="http://www.w3.org/1999/xlink" x="0px" y="0px" width="24px"
     height="24px" viewBox="0 0 24 24" enable-background="new 0 0 24 24" xml:space="preserve">
<g id="Outline_Icons">
	<g>
		<path fill="none" stroke="rgb(51, 153, 204)" stroke-linecap="round" stroke-linejoin="round" stroke-miterlimit="10" d="M7.492,10.014
			c0.78-0.781,0.78-2.047,0-2.828L5.37,5.064c-0.78-0.781-2.047-0.781-2.828,0L1.378,6.228C0.368,7.236,0.213,8.812,1,10.002
			c3.38,5.111,7.89,9.62,13,13c1.188,0.786,2.768,0.629,3.774-0.378l1.164-1.164c0.78-0.781,0.78-2.047,0-2.828l-2.122-2.122
			c-0.781-0.78-2.048-0.78-2.828,0l-0.707,0.707c-2.326-1.906-4.591-4.17-6.496-6.496L7.492,10.014z"/>
		<polyline fill="none" stroke="rgb(51, 153, 204)" stroke-linecap="round" stroke-linejoin="round" stroke-miterlimit="10" points="
			14.5,3.459 17.5,0.5 20.542,3.479 		"/>
		<polyline fill="none" stroke="rgb(51, 153, 204)" stroke-linecap="round" stroke-linejoin="round" stroke-miterlimit="10" points="17.5,0.5 
			17.5,7.979 13.5,11.979 		"/>
		
		<line fill="none" stroke="rgb(51, 153, 204)" stroke-linecap="round" stroke-linejoin="round" stroke-miterlimit="10" x1="19.023" y1="9.49" x2="21.5" y2="11.967"/>
	</g>
</g>
</svg>
