<?xml version="1.0" encoding="utf-8"?>
<!-- Generator: Adobe Illustrator 16.0.0, SVG Export Plug-In . SVG Version: 6.00 Build 0)  -->
<!DOCTYPE svg PUBLIC "-//W3C//DTD SVG 1.1//EN" "http://www.w3.org/Graphics/SVG/1.1/DTD/svg11.dtd">
<svg version="1.1" id="Layer_2" xmlns="http://www.w3.org/2000/svg" xmlns:xlink="http://www.w3.org/1999/xlink" x="0px" y="0px"
	 width="48px" height="48px" viewBox="0 0 48 48" style="enable-background:new 0 0 48 48;" xml:space="preserve">
<style type="text/css">
<![CDATA[
	.st0{fill:#FAFAFA;stroke:#231F20;stroke-width:2;stroke-linecap:round;stroke-linejoin:round;stroke-miterlimit:10;}
	.st1{fill:#FAFAFA;}
]]>
</style>
<g id="hangup">
</g>
<g id="more_filled">
</g>
<g id="more">
</g>
<g id="hamburger">
</g>
<g id="hamburger_filled">
</g>
<g id="information">
</g>
<g id="information_filled">
</g>
<g id="help">
</g>
<g id="help_filled">
</g>
<g id="star_filled_1_">
	<path fill="#FAFAFA" d="M46,18L46,18 M24,0c-0.8,0-1.6,0.5-1.9,1.3L16.6,16H2c-0.9,0-1.6,0.6-1.9,1.4c-0.3,0.8,0,1.7,0.7,2.2l12.8,9.1
		L8.1,45.4c-0.3,0.8,0,1.8,0.7,2.3C9.2,47.9,9.6,48,10,48c0.4,0,0.9-0.1,1.2-0.4L24,37.5l12.8,10.1c0.4,0.3,0.8,0.4,1.2,0.4
		c0.4,0,0.8-0.1,1.1-0.4c0.7-0.5,1-1.4,0.7-2.3l-5.5-16.6l12.7-9.1c0.5-0.4,0.9-1,0.9-1.7c0-1.1-0.9-2-2-2h0H31.4L25.9,1.3
		C25.6,0.5,24.8,0,24,0L24,0z"/>
</g>
<g id="backspace">
</g>
</svg>
