<?xml version="1.0" encoding="utf-8"?>
<!-- Generator: Adobe Illustrator 16.0.0, SVG Export Plug-In . SVG Version: 6.00 Build 0)  -->
<!DOCTYPE svg PUBLIC "-//W3C//DTD SVG 1.1//EN" "http://www.w3.org/Graphics/SVG/1.1/DTD/svg11.dtd">
<svg version="1.1" xmlns="http://www.w3.org/2000/svg" xmlns:xlink="http://www.w3.org/1999/xlink" x="0px" y="0px" width="24px"
	 height="24px" viewBox="0 0 24 24" enable-background="new 0 0 24 24" xml:space="preserve">
<g id="Filled_Icons" display="none">
	<g display="inline">
		<path d="M23.994,16.47c-0.002-0.034-0.011-0.065-0.02-0.098c-0.009-0.033-0.017-0.064-0.032-0.094
			c-0.005-0.009-0.004-0.02-0.01-0.029l-3.5-6C20.342,10.095,20.178,10,20,10h-3c-0.276,0-0.5,0.224-0.5,0.5
			c0,0.276,0.224,0.5,0.5,0.5h2.713l2.917,5H16.5c-0.276,0-0.5,0.224-0.5,0.5v1c0,0.827-0.673,1.5-1.5,1.5H10
			c-0.827,0-1.5-0.673-1.5-1.5v-1C8.5,16.224,8.276,16,8,16H1.371l2.917-5H6.5C6.776,11,7,10.776,7,10.5C7,10.224,6.776,10,6.5,10H4
			c-0.178,0-0.342,0.095-0.432,0.248l-3.5,6c-0.005,0.01-0.005,0.02-0.01,0.029c-0.015,0.03-0.023,0.062-0.032,0.094
			c-0.009,0.033-0.018,0.064-0.02,0.098C0.005,16.48,0,16.489,0,16.5v7C0,23.776,0.224,24,0.5,24h23c0.276,0,0.5-0.224,0.5-0.5v-7
			C24,16.489,23.995,16.48,23.994,16.47z"/>
		<path d="M11.146,11.854C11.236,11.943,11.364,12,11.5,12s0.264-0.057,0.354-0.146l4-4c0.195-0.195,0.195-0.512,0-0.707
			s-0.512-0.195-0.707,0L12,10.293V0.5C12,0.224,11.776,0,11.5,0S11,0.224,11,0.5v9.793L7.854,7.146
			c-0.195-0.195-0.512-0.195-0.707,0s-0.195,0.512,0,0.707L11.146,11.854z"/>
	</g>
</g>
<g id="Outline_Icons">
	<g>
		<path fill="none" stroke="#FAFAFA" stroke-linecap="round" stroke-linejoin="round" stroke-miterlimit="10" d="M23.5,23.5h-23v-7
			H8v1c0,1.1,0.9,2,2,2h4.5c1.1,0,2-0.9,2-2v-1h7V23.5z"/>
		<polyline fill="none" stroke="#FAFAFA" stroke-linecap="round" stroke-linejoin="round" stroke-miterlimit="10" points="0.5,16.5 
			4,10.5 6.5,10.5 		"/>
		<polyline fill="none" stroke="#FAFAFA" stroke-linecap="round" stroke-linejoin="round" stroke-miterlimit="10" points="17,10.5 
			20,10.5 23.5,16.5 		"/>
		<g>
			
				<line fill="none" stroke="#FAFAFA" stroke-linecap="round" stroke-linejoin="round" stroke-miterlimit="10" x1="11.5" y1="11.5" x2="11.5" y2="0.5"/>
			<polyline fill="none" stroke="#FAFAFA" stroke-linecap="round" stroke-linejoin="round" stroke-miterlimit="10" points="
				15.5,7.5 11.5,11.5 7.5,7.5 			"/>
		</g>
	</g>
</g>
</svg>
