<?xml version="1.0" encoding="utf-8"?>
<!-- Generator: Adobe Illustrator 16.0.0, SVG Export Plug-In . SVG Version: 6.00 Build 0)  -->
<!DOCTYPE svg PUBLIC "-//W3C//DTD SVG 1.1//EN" "http://www.w3.org/Graphics/SVG/1.1/DTD/svg11.dtd">
<svg version="1.1" xmlns="http://www.w3.org/2000/svg" xmlns:xlink="http://www.w3.org/1999/xlink" x="0px" y="0px" width="24px"
	 height="24px" viewBox="0 0 24 24" enable-background="new 0 0 24 24" xml:space="preserve">
<g id="Filled_Icon">
	<g>
		<path fill="#FAFAFA" d="M21,6V4.5C21,3.121,19.878,2,18.5,2h-16C1.121,2,0,3.121,0,4.5V6h20.5H21z M3.5,5C3.224,5,3,4.776,3,4.5S3.224,4,3.5,4
			C3.775,4,4,4.224,4,4.5S3.775,5,3.5,5z M5.5,5C5.224,5,5,4.776,5,4.5S5.224,4,5.5,4C5.775,4,6,4.224,6,4.5S5.775,5,5.5,5z M7.5,5
			C7.223,5,7,4.776,7,4.5S7.223,4,7.5,4C7.775,4,8,4.224,8,4.5S7.775,5,7.5,5z"/>
		<path fill="#FAFAFA" d="M21,15.5V7h-0.5H0v8.5C0,16.879,1.121,18,2.5,18h16C19.878,18,21,16.879,21,15.5z"/>
		<path fill="#FAFAFA" d="M22,11v4.5c0,1.93-1.57,3.5-3.5,3.5H3v0.5C3,20.879,4.121,22,5.5,22h16c1.378,0,2.5-1.121,2.5-2.5V11H22z"/>
		<path fill="#FAFAFA" d="M24,10V8.5c0-1.207-0.86-2.217-2-2.449V10H24z"/>
	</g>
</g>
<g id="Outline_Icons" display="none">
	<g display="inline">
		
			<line fill="none" stroke="#000000" stroke-linecap="round" stroke-linejoin="round" stroke-miterlimit="10" x1="0.5" y1="6.5" x2="20.5" y2="6.5"/>
		<g>
			<g>
				<path d="M3.5,4C3.224,4,3,4.224,3,4.5S3.224,5,3.5,5S4,4.776,4,4.5S3.776,4,3.5,4L3.5,4z"/>
			</g>
		</g>
		<g>
			<g>
				<path d="M5.5,4C5.224,4,5,4.224,5,4.5S5.224,5,5.5,5S6,4.776,6,4.5S5.776,4,5.5,4L5.5,4z"/>
			</g>
		</g>
		<g>
			<g>
				<path d="M7.5,4C7.224,4,7,4.224,7,4.5S7.224,5,7.5,5S8,4.776,8,4.5S7.776,4,7.5,4L7.5,4z"/>
			</g>
		</g>
		<path fill="none" stroke="#000000" stroke-linecap="round" stroke-linejoin="round" stroke-miterlimit="10" d="M20.5,15.5
			c0,1.104-0.896,2-2,2h-16c-1.104,0-2-0.896-2-2v-11c0-1.104,0.896-2,2-2h16c1.104,0,2,0.896,2,2V15.5z"/>
		
			<line fill="none" stroke="#000000" stroke-linecap="round" stroke-linejoin="round" stroke-miterlimit="10" x1="20.5" y1="10.5" x2="23.5" y2="10.5"/>
		<path fill="none" stroke="#000000" stroke-linecap="round" stroke-linejoin="round" stroke-miterlimit="10" d="M20.5,6.5h1
			c1.104,0,2,0.896,2,2v11c0,1.104-0.896,2-2,2h-16c-1.104,0-2-0.896-2-2v-2"/>
	</g>
</g>
</svg>
