<?xml version="1.0" encoding="utf-8"?>
<!-- Generator: Adobe Illustrator 21.1.0, SVG Export Plug-In . SVG Version: 6.00 Build 0)  -->
<svg version="1.1" id="Layer_1" xmlns="http://www.w3.org/2000/svg" xmlns:xlink="http://www.w3.org/1999/xlink" x="0px" y="0px"
	 viewBox="0 0 48 28" style="enable-background:new 0 0 48 28;" xml:space="preserve">
<style type="text/css">
	.st0{fill:#FF6633;}
</style>
<g transform="translate(0.000000,28.000000) scale(0.100000,-0.100000)">
	<path class="st0" d="M12,268C-5,251-5,29,12,12C25-1,274-6,304,6c24,9,24,259,0,268C274,286,25,281,12,268z M300,140V20H160H20v120
		v120h140h140V140z"/>
	<path class="st0" d="M403,227l-63-31v-56V84l65-32c36-18,68-32,70-32c3,0,5,54,5,120s-3,120-7,119C468,259,437,245,403,227z
		 M460,140c0-50-2-90-5-90c-2,0-25,10-50,22c-44,21-45,23-45,68c0,44,2,47,43,67c23,12,45,22,50,22C457,230,460,190,460,140z"/>
</g>
</svg>
