<?xml version="1.0" standalone="no"?>
<!DOCTYPE svg PUBLIC "-//W3C//DTD SVG 20010904//EN"
 "http://www.w3.org/TR/2001/REC-SVG-20010904/DTD/svg10.dtd">
<svg version="1.0" xmlns="http://www.w3.org/2000/svg"
 width="48.000000pt" height="28.000000pt" viewBox="0 0 48.000000 28.000000"
 preserveAspectRatio="xMidYMid meet">
<metadata>
Created by potrace 1.10, written by Peter Selinger 2001-2011
</metadata>
<g transform="translate(0.000000,28.000000) scale(0.100000,-0.100000)"
fill="#ffffff" stroke="none">
<path d="M12 268 c-17 -17 -17 -239 0 -256 13 -13 262 -18 292 -6 24 9 24 259
0 268 -30 12 -279 7 -292 -6z m288 -128 l0 -120 -140 0 -140 0 0 120 0 120
140 0 140 0 0 -120z"/>
<path d="M403 227 l-63 -31 0 -56 0 -56 65 -32 c36 -18 68 -32 70 -32 3 0 5
54 5 120 0 66 -3 120 -7 119 -5 0 -36 -14 -70 -32z m57 -87 c0 -50 -2 -90 -5
-90 -2 0 -25 10 -50 22 -44 21 -45 23 -45 68 0 44 2 47 43 67 23 12 45 22 50
22 4 1 7 -39 7 -89z"/>
</g>
</svg>
