<?xml version="1.0" encoding="UTF-8" ?>
<!DOCTYPE svg PUBLIC "-//W3C//DTD SVG 1.1//EN" "http://www.w3.org/Graphics/SVG/1.1/DTD/svg11.dtd">
<svg width="46pt" height="48pt" viewBox="0 0 46 48" version="1.1" xmlns="http://www.w3.org/2000/svg">
<path fill="none" d=" M 0.00 0.00 L 46.00 0.00 L 46.00 2.22 C 43.38 1.86 40.72 1.89 38.09 2.07 C 37.95 8.66 37.93 15.25 38.10 21.84 C 40.73 21.95 43.37 21.95 46.00 21.83 L 46.00 48.00 L 31.69 48.00 C 35.21 47.47 38.02 44.77 39.68 41.77 C 41.13 37.51 36.67 34.62 34.03 32.09 C 31.72 29.86 28.48 31.16 26.33 32.86 C 22.33 29.38 18.58 25.62 15.09 21.63 C 16.74 19.50 18.15 16.33 15.95 14.02 C 13.41 11.35 10.55 6.93 6.27 8.26 C 3.22 9.77 0.69 12.65 0.00 16.04 L 0.00 0.00 Z" />
<path fill="#ff6633" d=" M 28.10 2.11 C 30.69 1.86 33.29 1.86 35.88 2.09 C 36.06 8.66 36.11 15.24 35.86 21.81 C 33.30 22.00 30.73 21.99 28.17 21.83 C 27.85 15.27 27.98 8.68 28.10 2.11 Z" />
<path fill="#ff6633" d=" M 38.09 2.07 C 40.72 1.89 43.38 1.86 46.00 2.22 L 46.00 21.83 C 43.37 21.95 40.73 21.95 38.10 21.84 C 37.93 15.25 37.95 8.66 38.09 2.07 Z" />
<path fill="#ff6633" d=" M 6.27 8.26 C 10.55 6.93 13.41 11.35 15.95 14.02 C 18.15 16.33 16.74 19.50 15.09 21.63 C 18.58 25.62 22.33 29.38 26.33 32.86 C 28.48 31.16 31.72 29.86 34.03 32.09 C 36.67 34.62 41.13 37.51 39.68 41.77 C 38.02 44.77 35.21 47.47 31.69 48.00 L 31.27 48.00 C 28.38 47.70 26.09 45.82 23.85 44.16 C 15.42 38.01 8.10 30.40 2.14 21.85 C 1.16 20.52 0.54 18.99 0.00 17.44 L 0.00 16.04 C 0.69 12.65 3.22 9.77 6.27 8.26 Z" />
<path fill="none" d=" M 0.00 17.44 C 0.54 18.99 1.16 20.52 2.14 21.85 C 8.10 30.40 15.42 38.01 23.85 44.16 C 26.09 45.82 28.38 47.70 31.27 48.00 L 0.00 48.00 L 0.00 17.44 Z" />
</svg>
