<?xml version="1.0" standalone="no"?>
<!DOCTYPE svg PUBLIC "-//W3C//DTD SVG 20010904//EN"
 "http://www.w3.org/TR/2001/REC-SVG-20010904/DTD/svg10.dtd">
<svg version="1.0" xmlns="http://www.w3.org/2000/svg"
 width="48.000000pt" height="40.000000pt" viewBox="0 0 48.000000 40.000000"
 preserveAspectRatio="xMidYMid meet">
<metadata>
Created by potrace 1.10, written by Peter Selinger 2001-2011
</metadata>
<g transform="translate(0.000000,40.000000) scale(0.100000,-0.100000)"
fill="#ffffff" stroke="none">
<path d="M185 380 c-13 -14 -31 -20 -60 -20 -22 0 -46 -5 -53 -12 -16 -16 -16
-180 0 -196 17 -17 319 -17 336 0 16 16 16 180 0 196 -7 7 -31 12 -53 12 -29
0 -47 6 -60 20 -12 13 -31 20 -55 20 -24 0 -43 -7 -55 -20z m102 -17 c14 -9
44 -19 67 -23 l41 -5 0 -85 0 -85 -155 0 -155 0 0 85 0 85 41 6 c23 3 52 12
65 21 31 22 63 22 96 1z"/>
<path d="M197 302 c-18 -19 -22 -59 -9 -78 16 -24 51 -35 75 -23 29 16 37 28
37 60 0 52 -69 79 -103 41z m81 -39 c2 -24 -2 -34 -17 -43 -31 -16 -61 3 -61
39 0 36 8 43 45 39 26 -3 30 -8 33 -35z"/>
<path d="M342 293 c2 -10 10 -18 18 -18 8 0 16 8 18 18 2 12 -3 17 -18 17 -15
0 -20 -5 -18 -17z"/>
<path d="M10 166 c-15 -42 2 -70 58 -94 28 -12 59 -22 69 -23 15 0 14 -2 -4
-11 -13 -6 -23 -17 -23 -25 0 -10 10 -8 40 9 22 13 40 26 40 30 0 4 -13 22
-30 40 -17 19 -30 27 -30 19 0 -8 7 -23 17 -33 15 -17 14 -17 -31 -4 -84 25
-117 61 -85 93 8 8 8 13 0 17 -6 4 -15 -4 -21 -18z"/>
<path d="M447 184 c-3 -3 -1 -14 5 -24 6 -9 8 -25 5 -34 -9 -23 -80 -52 -144
-61 -29 -4 -53 -12 -53 -17 0 -17 100 0 156 28 56 26 73 58 54 94 -12 22 -14
23 -23 14z"/>
</g>
</svg>
