<?xml version="1.0" standalone="no"?>
<!DOCTYPE svg PUBLIC "-//W3C//DTD SVG 20010904//EN"
 "http://www.w3.org/TR/2001/REC-SVG-20010904/DTD/svg10.dtd">
<svg version="1.0" xmlns="http://www.w3.org/2000/svg"
 width="48.000000pt" height="44.000000pt" viewBox="0 0 48.000000 44.000000"
 preserveAspectRatio="xMidYMid meet">
<metadata>
Created by potrace 1.10, written by Peter Selinger 2001-2011
</metadata>
<g transform="translate(0.000000,44.000000) scale(0.100000,-0.100000)"
fill="#3399cc" stroke="none">
<path d="M227 433 c-11 -10 -8 -113 3 -113 6 0 10 20 10 44 l0 44 55 -56 54
-57 65 64 c36 36 62 69 59 74 -3 5 -32 -17 -64 -49 l-59 -59 -47 48 -48 47 43
0 c23 0 42 5 42 10 0 11 -103 14 -113 3z"/>
<path d="M47 409 c-11 -6 -25 -27 -33 -45 -13 -31 -13 -39 3 -72 21 -46 205
-230 255 -257 45 -23 80 -14 111 27 26 35 17 68 -29 103 -32 25 -41 27 -65 18
-27 -10 -32 -8 -84 44 -39 39 -53 59 -45 67 21 21 10 58 -26 92 -37 36 -57 41
-87 23z m76 -37 c30 -31 33 -43 15 -72 -11 -18 -5 -27 57 -90 62 -62 71 -68
85 -55 9 8 23 15 30 15 19 0 70 -50 70 -69 0 -22 -40 -61 -63 -61 -55 0 -297
238 -297 292 0 23 39 68 59 68 9 0 29 -13 44 -28z"/>
</g>
</svg>
